<svg xmlns="http://www.w3.org/2000/svg" width="1600" height="620" viewBox="0 0 1600 620" fill="none">
  <defs>
    <linearGradient id="wash" x1="0" y1="0" x2="1600" y2="620" gradientUnits="userSpaceOnUse">
      <stop stop-color="#D9F1EA" stop-opacity="0.8"/>
      <stop offset="0.48" stop-color="#FFFFFF" stop-opacity="0.5"/>
      <stop offset="1" stop-color="#A8D8CA" stop-opacity="0.42"/>
    </linearGradient>
    <linearGradient id="line" x1="0" y1="0" x2="1600" y2="0" gradientUnits="userSpaceOnUse">
      <stop stop-color="#3F7F71" stop-opacity="0"/>
      <stop offset="0.5" stop-color="#3F7F71" stop-opacity="0.16"/>
      <stop offset="1" stop-color="#3F7F71" stop-opacity="0"/>
    </linearGradient>
    <filter id="blur" x="-10%" y="-20%" width="120%" height="150%">
      <feGaussianBlur stdDeviation="10"/>
    </filter>
  </defs>
  <path d="M0 0H1600V258C1350 348 1170 258 962 284C733 312 590 471 331 430C182 406 76 336 0 285V0Z" fill="url(#wash)"/>
  <path d="M0 88C223 36 371 167 544 151C743 132 843 7 1037 28C1235 50 1330 196 1600 132" stroke="#FFFFFF" stroke-opacity="0.72" stroke-width="2"/>
  <path d="M0 176C173 121 335 243 545 222C738 202 821 85 1032 112C1217 136 1312 270 1600 224" stroke="url(#line)" stroke-width="2"/>
  <path d="M0 314C195 243 314 366 526 340C754 312 879 174 1081 206C1269 236 1378 369 1600 316" stroke="#FFFFFF" stroke-opacity="0.62" stroke-width="1.5"/>
  <circle cx="196" cy="156" r="114" fill="#79B99F" fill-opacity="0.13" filter="url(#blur)"/>
  <circle cx="1282" cy="160" r="136" fill="#A8D8CA" fill-opacity="0.18" filter="url(#blur)"/>
</svg>
