<?xml version="1.0" encoding="UTF-8"?>
<svg id="Layer_2" data-name="Layer 2" xmlns="http://www.w3.org/2000/svg" viewBox="0 0 554 554">
  <defs>
    <style>
      .cls-1 {
        fill: #184d93;
      }

      .cls-2 {
        fill: #fff;
      }
    </style>
  </defs>
  <g id="Layer_1-2" data-name="Layer 1">
    <rect class="cls-1" width="554" height="554"/>
    <g>
      <g>
        <path class="cls-2" d="M202.52,222.48l18.97-137.54c18.77-59.09,100.19-55.52,113.16,6.4,4.14,54.49,18.83,111.73,22.16,165.84,1.98,32.19-9.92,58.44-36.72,76.36-53.81,20.89-109.6,50.75-164.08,68.92-63.91,21.32-108.7-59.65-56.71-101.71l103.22-78.27ZM316.76,194.72l-13.09-97.4c-5.84-28.59-44.87-30.83-53.44-2.64l-12.45,100.04c24.39-14.24,54.61-14.44,78.98,0ZM322.48,238c-21.21-17.01-41.68-31.24-69.02-16.08l-138.34,106.16c-18.65,20.9-.23,51.16,27.04,44.54l94.61-37.9c-4.22-3.66-9.23-6.32-13.47-10.01-10.91-9.5-18.95-23-23.38-36.68l28.36-22.29c-.29,30.81,23.34,43.38,48.99,51.92,17.24-7.5,34.9-11.77,44.04-29.89,8.6-17.05,4.35-31.98,1.18-49.76Z"/>
        <path class="cls-2" d="M300.77,361.74c12.9-5.09,25.67-10.68,37.49-17.97,23.16,7.72,46.47,21.24,69.55,28.42,28.67,8.91,48.38-19.23,30.94-42.94l-62.46-48.54-7.51-44.98,4.89,2.59c26,23.16,59.93,42.41,85.11,65.89,45.27,42.19,1.25,118.35-59.26,99.26-31.89-10.06-64.35-28.93-96.45-39.55l-2.3-2.19Z"/>
      </g>
      <g>
        <path class="cls-2" d="M251.63,449.98c2.25-.73,10.37-1.88,11.45.72,1.55,11.12-1.09,25.1.45,35.89,1.6,11.16,15.7,11.28,17.53,1.32s-.96-25.01.23-35.41c.11-.96.79-3.24,1.58-3.24h9.28c.88.64.85,1.45.96,2.51.98,9.87-2.21,30.79,1.93,38.52,3.04,5.69,10.25,6.74,14.13,1.58.53-.7,2.47-5.27,2.47-5.83v-35.69l.93-1.09h9.9l.93,1.09v37.15c0,4-3.96,12.15-6.47,14.97-9.12,10.26-22.86,8.17-30.02-3.67-7.55,15.71-26.47,12.41-33.14-2.89-.35-.81-2.14-5.88-2.14-6.22v-39.7Z"/>
        <path class="cls-2" d="M148,508.26c-1.65-.6-.69-6.94-.93-8.74-4.04,4.48-7.48,8.53-13.36,9.39-18.8,2.73-28.88-13.83-27.49-34.55,1.7-25.15,27.29-35.07,40.85-15.64l-.02-8.24c.13-.48,1.4-1.23,1.57-1.23h9.28l.93,1.09v57.91h-10.83ZM131.47,460.33c-19.15,2.02-17.79,39.3,2.91,37,18.28-2.03,16.41-39.04-2.91-37Z"/>
        <path class="cls-2" d="M442.81,474.02l21.05-24.39c2.37-.36,11.17-1.79,11.14,2.17-.02,2.3-14.02,16.89-15.47,20.37l17.94,34.29-.94,1.79h-11.76l-13.31-25.49c-.59-.52-8.65,8.41-8.65,9.1v15.3l-.93,1.09h-9.9l-.93-1.09v-80.49c3.54-.82,8.81-2.02,11.76,1.09v46.26Z"/>
        <path class="cls-2" d="M357.3,448.75c37.93-2.63,35.79,66.24-2.03,62.41-31.11-3.15-31.94-60.06,2.03-62.41ZM354.79,461.08c-16.61,3.37-14.35,39.1,5.37,36.18,18.61-2.75,16.32-40.58-5.37-36.18Z"/>
        <path class="cls-2" d="M185.29,448.73c4.84-.69,9.24-.06,13.88,1.46,8.65,2.83,10.12,4.89,3.77,13.54-5.02-1.37-9.36-4.44-14.74-4.32-3.35.08-8.37,2.38-6.65,7.13,2.7,7.49,22.18,5.42,25.98,18.98,1.51,5.39.65,11.4-2.33,15.81-6.11,9.06-19.14,8.75-27.69,5.69-1.95-.7-9.28-4.23-9.45-6.41-.12-1.59,2.64-8.28,4.07-8.42,1.02-.1,5.12,2.98,6.78,3.71,4.59,2.01,20.15,5.21,17.38-5.14-2.12-7.92-23.07-6.25-25.44-19.6-2.23-12.53,4.09-20.95,14.44-22.42Z"/>
        <path class="cls-2" d="M76.53,440.15c1.06-7.46,8.41-14.06,14.6-14.85,2.25-.29,12.73.98,13.75,2.95,1.2,2.3-1.76,8.87-3.62,10.47-1.78.88-5.72-3.45-10.1-.28s-2.64,8.12-2.87,13h10.83c.17,0,1.44.75,1.57,1.23-.35,2.88.87,6.8-.95,8.97h-11.45v45.53l-.93,1.09h-10.83v-68.11Z"/>
        <path class="cls-2" d="M228.74,452.17h13.3c1.37,1.19,1.28,7.44.62,8.74-.4.37-1.56,1.46-1.86,1.46h-12.06v29.5c0,.21,1.55,3.35,1.83,3.67,3.35,3.9,7.82-.96,10.55.68,3.04,6.44,3.98,9.01-2.62,11.52-10.95,4.15-21.13-1.85-22.16-15.84l.15-54.51c.83-3.31,8.61-1.87,11.01-1.6.28.2,1.24,1.98,1.24,2.18v14.2Z"/>
        <path class="cls-2" d="M394.55,508.26v-57.91l.93-1.09h9.28c2.25,0,1.44,9.05,1.55,10.92,1.5-1.34,2.29-3.88,3.68-5.49,2.33-2.71,12.72-9.34,13.64-3.61.27,1.7.22,9.11-.56,10.27-3.86,1.66-6.97.97-10.78,4.06-1.74,1.41-5.98,7.56-5.98,9.71v32.05l-.93,1.09h-10.83Z"/>
      </g>
    </g>
  </g>
</svg>