<?xml version="1.0" encoding="UTF-8"?>
<svg id="Layer_1" data-name="Layer 1" xmlns="http://www.w3.org/2000/svg" viewBox="0 0 1280 1280">
  <defs>
    <style>
      .cls-1 {
        fill: #512d05;
      }

      .cls-2 {
        fill: #d29c5f;
      }
    </style>
  </defs>
  <path class="cls-1" d="M509.3,716.27c8.38.04,59.56-1.86,62.04,0,.46.34-.44-.42,0,0,1.57,1.51.76,3.78.54,5.61-.29,2.38-.36,4.79-.23,7.19.28,5.19,1.55,10.29,3.09,15.25,5.19,16.68,14.5,30.68,30.15,39.12,7.48,4.04,15.64,6.72,23.97,8.34,5.25,1.02,12.67-.67,16.69,1.46,2.25,1.19,1.2,9.06-1.19,9.06h-209.09v-10.01c43.79,4.15,77.5-33.48,74.03-76.02Z"/>
  <path class="cls-1" d="M653.37,498.18c-4.86-13.41-11.04-30.74-16.01-44.02,5.45.75,7.36,7,12.18,10.83,39.66,31.53,97.93,32.59,141.22,7.51,83.69-48.48,88.56-213.39,28.62-281.41-63.99-72.61-163.3-46.09-246.05-33.07l-2.02,156.07c-11.34-11.57-20.45-27.75-32.01-39.01-5.1-4.97-25.74-22.36-30-25.02,2.24-43.5,2.38-95.7-55.11-94.12-4.24.12-16.4,3.88-18.7,1.84-1.9-1.69-3.8-10.68,2.78-11.77,9.77-1.62,23.47-.93,33.77-2.24,124.04-15.9,298.05-75.43,401.45,19.23,76.47,70.01,76.65,221.93,11.92,300.1-55.38,66.87-158.99,80.78-232.04,35.07Z"/>
  <path class="cls-2" d="M573.42,317.01c26.42,42.58,46.58,90.73,63.94,137.15,4.97,13.28,11.15,30.6,16.01,44.02,37.26,102.83,70.02,209.51,108.55,312.64,47.02,125.85,132.39,321.11,285.18,337.1,18.37,1.92,33.26-4.38,47.49-3.63,10.14.54,11.04,9.35,3.41,12.01-11.47,4-43.49,10.77-55.69,11.94-189.87,18.12-294.92-190.61-346.98-338.84-12.88-36.67-22.63-74.43-36.21-110.84-26.22.12-52.63-2.47-78.87-1.76l-6.8-.36s-55.74-.11-64.12-.15c-31.99-.16-79.13-3.81-109.17-.13-12.68,1.55-9.69,16.19-13.07,24.55-13.04,32.25-28.08,66.42-40.41,98.11-6.08,15.63-22.25,52.21-23.41,66.57-2.38,29.72,19.36,47.63,48,44.99v10.01h-191.09c-2.62,0-3.68-7.37-3.01-9.99,30.66-.89,55.78-9.44,75.98-33.09,14.04-16.44,18.36-32.62,26.46-51.56,53.51-125.06,107.59-254.58,160.46-381.77,15.56-37.42,29.75-76.77,48.76-113.24,1.74-3.34,16.08-39.55,16.4-41.77,2.17-15.29-17.92-35.19-28.87-44.92-49.93-44.34-111.17-44.95-171.97-23.81-1.25-.19-3.48-9.69-3.17-10.11,1.67-2.27,47.15-16,53.61-17.47,53.91-12.28,106.08-12.87,154.49,17.43,4.26,2.67,24.9,20.05,30,25.02,11.56,11.25,20.67,27.43,32.01,39.01M573.48,478.93,573.33,688.26h76.03l-78.03-220.1c-2.4-17.84-6.43-27.84-12.5-44.52-7.37-20.24-15.51-41.05-26.53-59.51-7.85,20.47-18.11,40.53-23,62.02l-104.06,261.09c34.56,1.73,69.44,1.2,104.06,1.02,20.65-.11,41.39.07,62.04.01"/>
  <path class="cls-1" d="M571.33,468.16c.17,1.28-.13,2.7,0,4v216.1c-20.64.06-41.38-.12-62.03-.01v-262.11c4.89-21.49,15.16-41.55,23-62.02,11.02,18.46,19.16,39.27,26.53,59.51,6.07,16.69,10.1,26.68,12.5,44.52Z"/>
</svg>